<svg xmlns="http://www.w3.org/2000/svg">
    <symbol xmlns="http://www.w3.org/2000/svg" id="fb" viewBox="0 0 8 16">
       <path fill-rule="evenodd" clip-rule="evenodd" d="M5.12005 5.4798V3.96782C5.12005 3.39182 5.48004 3.24782 5.76804 3.24782H7.42406V0.799805H5.12005C2.60005 0.799805 2.60005 2.67181 2.60005 3.82381V5.4798H0.800049V7.9998H2.60005V15.1998H5.12005V7.9998H7.20804L7.49604 5.4798H5.12005Z" />
    </symbol>
	<symbol xmlns="http://www.w3.org/2000/svg" id="twitter" viewBox="0 0 16 13">
		<path fill-rule="evenodd" clip-rule="evenodd" d="M16 1.89746C15.4483 2.13391 14.8177 2.29153 14.1084 2.37035C14.7389 1.97626 15.2906 1.34571 15.5271 0.636346C14.8966 1.03043 14.1872 1.26689 13.4778 1.42452C12.9261 0.793981 12.0591 0.399902 11.1133 0.399902C9.30049 0.399902 7.88178 1.81862 7.88178 3.55261C7.88178 3.78906 7.88177 4.02554 7.96059 4.26199C5.28079 4.10435 2.91626 2.84326 1.26109 0.951636C0.945814 1.42454 0.78818 1.97627 0.78818 2.52799C0.78818 3.63144 1.3399 4.57722 2.2069 5.20776C1.65517 5.20776 1.18226 5.05013 0.709357 4.81368C0.709357 4.81368 0.709357 4.8137 0.709357 4.89252C0.709357 6.46888 1.81281 7.72996 3.31034 8.04523C3.07389 8.12405 2.75862 8.12403 2.44335 8.12403C2.2069 8.12403 2.04926 8.12405 1.81281 8.04523C2.2069 9.30632 3.38916 10.2521 4.80788 10.2521C3.70443 11.1191 2.28572 11.592 0.78818 11.592C0.551727 11.592 0.236456 11.592 2.40533e-06 11.5132C1.41872 12.459 3.15271 12.9319 4.96552 12.9319C10.8768 12.9319 14.1872 8.04524 14.1872 3.8679C14.1872 3.71027 14.1872 3.55263 14.1872 3.47381C15.0542 3.07972 15.6059 2.528 16 1.89746Z"/>
	</symbol>
	<symbol xmlns="http://www.w3.org/2000/svg" id="linkedin" viewBox="0 0 16 16">
		<path d="M14.12 0.799822H1.88005C1.30405 0.799822 0.80005 1.23397 0.80005 1.81286V14.1868C0.80005 14.7657 1.30405 15.1998 1.88005 15.1998H14.12C14.696 15.1998 15.2 14.7657 15.2 14.1868V1.81286C15.2 1.30633 14.696 0.799822 14.12 0.799822ZM5.04805 13.1737H2.88805V6.2993H5.04805V13.1737ZM3.96805 5.28622C3.24805 5.28622 2.74405 4.70736 2.74405 4.0561C2.74405 3.40485 3.32005 2.82594 3.96805 2.82594C4.61605 2.82594 5.19205 3.40485 5.19205 4.0561C5.26405 4.77972 4.68805 5.28622 3.96805 5.28622ZM13.04 13.1737H10.88V9.84505C10.88 9.04907 10.88 8.036 9.80004 8.036C8.72004 8.036 8.50405 8.90435 8.50405 9.84505V13.246H6.34405V6.37165H8.36004V7.31239C8.64804 6.73349 9.36805 6.22696 10.376 6.22696C12.536 6.22696 12.9681 7.67419 12.9681 9.48324V13.1737H13.04Z" />
	</symbol>
	<symbol xmlns="http://www.w3.org/2000/svg" id="search" viewBox="0 0 20 20">
		<path fill-rule="evenodd" clip-rule="evenodd" d="M9 2C5.13401 2 2 5.13401 2 9C2 12.866 5.13401 16 9 16C12.866 16 16 12.866 16 9C16 5.13401 12.866 2 9 2ZM0 9C0 4.02944 4.02944 0 9 0C13.9706 0 18 4.02944 18 9C18 13.9706 13.9706 18 9 18C4.02944 18 0 13.9706 0 9Z" />
		<path fill-rule="evenodd" clip-rule="evenodd" d="M13.9429 13.9429C14.3334 13.5524 14.9666 13.5524 15.3571 13.9429L19.7071 18.2929C20.0976 18.6834 20.0976 19.3166 19.7071 19.7071C19.3166 20.0976 18.6834 20.0976 18.2929 19.7071L13.9429 15.3571C13.5524 14.9666 13.5524 14.3334 13.9429 13.9429Z" />
	</symbol>
	<symbol xmlns="http://www.w3.org/2000/svg" id="heart" viewBox="0 0 23 21">
		<path fill-rule="evenodd" clip-rule="evenodd" d="M13.9131 0.495075C14.702 0.168228 15.5474 0 16.4013 0C17.2551 0 18.1006 0.168229 18.8894 0.495075C19.6781 0.821861 20.3947 1.30081 20.9982 1.90455C21.602 2.5081 22.0813 3.22501 22.408 4.01368C22.7349 4.80249 22.9031 5.64797 22.9031 6.50183C22.9031 7.35568 22.7349 8.20116 22.408 8.98997C22.0812 9.77872 21.6022 10.4953 20.9984 11.0989C20.9983 11.099 20.9985 11.0989 20.9984 11.0989L12.1584 19.9389C11.7679 20.3295 11.1347 20.3295 10.7442 19.9389L1.90418 11.0989C0.684956 9.8797 0 8.22607 0 6.50183C0 4.77758 0.684956 3.12395 1.90418 1.90472C3.12341 0.68549 4.77704 0.000534773 6.50129 0.000534773C8.22554 0.000534773 9.87917 0.68549 11.0984 1.90472L11.4513 2.25761L11.804 1.90488C11.8041 1.90483 11.804 1.90494 11.804 1.90488C12.4076 1.30106 13.1244 0.821892 13.9131 0.495075ZM16.4013 2C15.8102 2 15.2248 2.11647 14.6787 2.34274C14.1326 2.56902 13.6365 2.90068 13.2186 3.31877L12.1584 4.37893C11.7679 4.76946 11.1347 4.76946 10.7442 4.37893L9.68418 3.31893C8.84003 2.47478 7.69511 2.00053 6.50129 2.00053C5.30747 2.00053 4.16255 2.47478 3.3184 3.31893C2.47424 4.16309 2 5.30801 2 6.50183C2 7.69564 2.47424 8.84056 3.3184 9.68472L11.4513 17.8176L19.5842 9.68472C20.0023 9.26683 20.3341 8.77049 20.5604 8.22439C20.7866 7.67828 20.9031 7.09295 20.9031 6.50183C20.9031 5.9107 20.7866 5.32537 20.5604 4.77926C20.3341 4.23316 20.0024 3.73699 19.5843 3.3191C19.1665 2.90101 18.67 2.56902 18.1239 2.34274C17.5778 2.11647 16.9924 2 16.4013 2Z"/>
	</symbol>
	<symbol xmlns="http://www.w3.org/2000/svg" id="basket" viewBox="0 0 20 22">
		<path fill-rule="evenodd" clip-rule="evenodd" d="M3.2 0.4C3.38885 0.148194 3.68524 0 4 0H16C16.3148 0 16.6111 0.148194 16.8 0.4L19.8 4.4C19.9298 4.5731 20 4.78363 20 5V19C20 19.7957 19.6839 20.5587 19.1213 21.1213C18.5587 21.6839 17.7957 22 17 22H3C2.20435 22 1.44129 21.6839 0.87868 21.1213C0.31607 20.5587 0 19.7957 0 19V5C0 4.78363 0.0701779 4.5731 0.2 4.4L3.2 0.4ZM4.5 2L2 5.33333V19C2 19.2652 2.10536 19.5196 2.29289 19.7071C2.48043 19.8946 2.73478 20 3 20H17C17.2652 20 17.5196 19.8946 17.7071 19.7071C17.8946 19.5196 18 19.2652 18 19V5.33333L15.5 2H4.5Z" />
		<path fill-rule="evenodd" clip-rule="evenodd" d="M0 5C0 4.44772 0.447715 4 1 4H19C19.5523 4 20 4.44772 20 5C20 5.55228 19.5523 6 19 6H1C0.447715 6 0 5.55228 0 5Z" />
		<path fill-rule="evenodd" clip-rule="evenodd" d="M6 8C6.55228 8 7 8.44771 7 9C7 9.79565 7.31607 10.5587 7.87868 11.1213C8.44129 11.6839 9.20435 12 10 12C10.7956 12 11.5587 11.6839 12.1213 11.1213C12.6839 10.5587 13 9.79565 13 9C13 8.44771 13.4477 8 14 8C14.5523 8 15 8.44771 15 9C15 10.3261 14.4732 11.5979 13.5355 12.5355C12.5979 13.4732 11.3261 14 10 14C8.67392 14 7.40215 13.4732 6.46447 12.5355C5.52678 11.5979 5 10.3261 5 9C5 8.44771 5.44772 8 6 8Z" />
	</symbol>
	<symbol xmlns="http://www.w3.org/2000/svg" id="person" viewBox="0 0 24 24">
		<path fill-rule="evenodd" clip-rule="evenodd" d="M4.46447 15.4645C5.40215 14.5268 6.67392 14 8 14H16C17.3261 14 18.5979 14.5268 19.5355 15.4645C20.4732 16.4021 21 17.6739 21 19V21C21 21.5523 20.5523 22 20 22C19.4477 22 19 21.5523 19 21V19C19 18.2044 18.6839 17.4413 18.1213 16.8787C17.5587 16.3161 16.7956 16 16 16H8C7.20435 16 6.44129 16.3161 5.87868 16.8787C5.31607 17.4413 5 18.2044 5 19V21C5 21.5523 4.55228 22 4 22C3.44772 22 3 21.5523 3 21V19C3 17.6739 3.52678 16.4021 4.46447 15.4645Z"/>
		<path fill-rule="evenodd" clip-rule="evenodd" d="M12 4C10.3431 4 9 5.34315 9 7C9 8.65685 10.3431 10 12 10C13.6569 10 15 8.65685 15 7C15 5.34315 13.6569 4 12 4ZM7 7C7 4.23858 9.23858 2 12 2C14.7614 2 17 4.23858 17 7C17 9.76142 14.7614 12 12 12C9.23858 12 7 9.76142 7 7Z" />
	</symbol>
	<symbol xmlns="http://www.w3.org/2000/svg" id="dropdown" viewBox="0 0 11 7">
		<path d="M9.85975 1.54027C10.0597 1.35027 10.0597 1.04027 9.85975 0.860273L9.13978 0.180281C8.93978 -0.00971924 8.61975 -0.00971924 8.42975 0.180281L5.02976 3.47026L1.59977 0.150312C1.39977 -0.0396875 1.07977 -0.0396875 0.879767 0.150312L0.159766 0.830305C-0.0402344 1.02031 -0.0402344 1.3203 0.159766 1.5103L4.66978 5.86027C4.86978 6.05027 5.18978 6.05027 5.38978 5.86027L9.85975 1.54027Z"/>
	</symbol>
	<symbol xmlns="http://www.w3.org/2000/svg" id="transport" viewBox="0 0 40 40">
		<path d="M39.9527 2.98621C39.866 1.3973 38.6023 0.133784 37.0134 0.0470656C33.8073 -0.128091 27.5336 0.0423001 21.5345 3.14519C18.4763 4.72707 15.242 7.40902 12.6608 10.5034C12.629 10.5415 12.598 10.5799 12.5665 10.6181L6.70867 11.0706C5.74445 11.1451 4.88563 11.6505 4.35234 12.4571L0.355938 18.5018C-0.0485157 19.1135 -0.112813 19.879 0.183828 20.5496C0.480547 21.2202 1.09023 21.6875 1.81484 21.7998L6.75008 22.5642C6.73266 22.6601 6.71516 22.756 6.69914 22.8519C6.53484 23.8347 6.86047 24.8452 7.57031 25.555L14.4447 32.4294C15.0332 33.0179 15.8284 33.3424 16.6433 33.3424C16.8111 33.3424 16.9798 33.3285 17.1478 33.3005C17.2438 33.2845 17.3396 33.267 17.4355 33.2496L18.1999 38.1849C18.3122 38.9095 18.7795 39.5193 19.45 39.8159C19.729 39.9393 20.0242 40.0003 20.3181 40.0003C20.7309 40.0002 21.1407 39.88 21.4979 39.6439L27.5426 35.6474C28.3492 35.114 28.8545 34.2552 28.9289 33.291L29.3814 27.4333C29.4196 27.4018 29.458 27.3708 29.4962 27.339C32.5906 24.7578 35.2727 21.5235 36.8545 18.4652C39.9575 12.4659 40.1276 6.19207 39.9527 2.98621ZM26.25 33.6922L20.4679 37.5151L19.7229 32.7053C22.1666 31.9868 24.5841 30.8361 26.8871 29.2944L26.5923 33.1104C26.574 33.3485 26.4491 33.5606 26.25 33.6922ZM16.102 30.7721L9.2275 23.8977C9.05211 23.7222 8.97102 23.4757 9.01078 23.2383C9.21516 22.0162 9.53274 20.8528 9.92586 19.7569L20.2405 30.0716C18.9243 30.5431 17.7453 30.8243 16.7613 30.9889C16.5235 31.0284 16.2773 30.9475 16.102 30.7721ZM6.88922 13.4074L10.7052 13.1126C9.16344 15.4157 8.01266 17.8331 7.29414 20.2768L2.48445 19.5319L6.30742 13.7497C6.43914 13.5505 6.65125 13.4257 6.88922 13.4074ZM27.9951 25.5391C26.1019 27.1182 24.2641 28.2604 22.5702 29.0869L10.9123 17.429C11.995 15.2178 13.3163 13.3764 14.4605 12.0047C16.8492 9.14105 19.8201 6.67066 22.6114 5.22691C28.1172 2.37902 33.918 2.22566 36.8859 2.38722C37.2787 2.40863 37.5911 2.72105 37.6125 3.11394C37.7743 6.08175 37.6206 11.8825 34.7727 17.3884C33.3291 20.1796 30.8587 23.1504 27.9951 25.5391Z" fill="#DBA674"/>
		<path d="M27.4002 18.4565C28.9004 18.4563 30.4012 17.8853 31.5433 16.7431C32.65 15.6365 33.2594 14.1651 33.2594 12.6001C33.2594 11.0351 32.6499 9.56369 31.5433 8.45705C29.2588 6.17244 25.5416 6.1726 23.2572 8.45705C22.1505 9.56369 21.541 11.0351 21.541 12.6001C21.541 14.1651 22.1505 15.6365 23.2572 16.7431C24.3995 17.8855 25.8995 18.4567 27.4002 18.4565ZM24.9143 10.1142C25.5996 9.42885 26.4998 9.08619 27.4001 9.08619C28.3004 9.08619 29.2006 9.42885 29.8859 10.1142C30.5499 10.7782 30.9155 11.661 30.9155 12.6C30.9155 13.539 30.5499 14.4219 29.8859 15.0859C28.5153 16.4566 26.2849 16.4565 24.9142 15.0859C24.2502 14.4219 23.8845 13.5391 23.8845 12.6001C23.8845 11.6611 24.2503 10.7782 24.9143 10.1142Z" fill="#DBA674"/>
		<path d="M1.19527 32.9639C1.4952 32.9639 1.79512 32.8495 2.02387 32.6206L5.84988 28.7946C6.30754 28.3369 6.30754 27.595 5.84988 27.1373C5.3923 26.6797 4.65027 26.6797 4.19262 27.1373L0.36668 30.9633C-0.0909766 31.421 -0.0909766 32.1629 0.36668 32.6206C0.59543 32.8494 0.895352 32.9639 1.19527 32.9639Z" fill="#DBA674"/>
		<path d="M9.35629 30.6438C8.89871 30.1861 8.15668 30.1861 7.69902 30.6438L0.343242 37.9996C-0.114414 38.4573 -0.114414 39.1993 0.343242 39.6569C0.57207 39.8857 0.871914 40.0001 1.17184 40.0001C1.47176 40.0001 1.77168 39.8857 2.00043 39.6568L9.35621 32.301C9.81394 31.8434 9.81394 31.1014 9.35629 30.6438Z" fill="#DBA674"/>
		<path d="M11.2054 34.15L7.37937 37.976C6.92172 38.4337 6.92172 39.1756 7.37937 39.6333C7.6082 39.8621 7.90812 39.9766 8.20797 39.9766C8.50781 39.9766 8.80781 39.8622 9.03656 39.6333L12.8626 35.8073C13.3202 35.3496 13.3202 34.6077 12.8626 34.15C12.405 33.6923 11.663 33.6923 11.2054 34.15Z" fill="#DBA674"/>
	</symbol>
	<symbol xmlns="http://www.w3.org/2000/svg" id="phone" viewBox="0 0 40 40">
		<path d="M37.0352 29.5134L32.0624 24.5408C30.6881 23.1665 28.4639 23.1664 27.0895 24.5408L24.8291 26.8012C23.7879 27.8423 22.103 27.8423 21.0618 26.8012C21.0613 26.8007 21.0608 26.8002 21.0604 26.7998L13.1994 18.9652C12.1584 17.9241 12.1582 16.2391 13.1994 15.1978L15.4598 12.9374C16.834 11.5632 16.8341 9.33894 15.4598 7.96457L10.4869 2.99169C9.11258 1.61739 6.88836 1.61732 5.51407 2.99169C5.50759 2.99817 3.8565 4.64926 3.8565 4.64926C-0.979902 9.11363 -1.52904 17.4975 3.70665 22.7331L17.2945 36.2947C22.0294 41.0295 30.0343 41.4872 35.3774 36.1442C35.3774 36.1442 35.3777 36.1439 35.3778 36.1438L37.0352 34.4864C38.4063 33.1153 38.4063 30.8845 37.0352 29.5134ZM7.17188 4.64942C7.62883 4.19247 8.37242 4.19239 8.82945 4.64942L13.8023 9.6223C14.2604 10.0803 14.2604 10.8218 13.8023 11.2799L12.9735 12.1087L6.34305 5.47825L7.17188 4.64942ZM18.9513 34.6363L5.36352 21.0749C1.5622 17.2735 1.34728 11.2239 4.71712 7.16754L11.3237 13.7742C9.59281 15.7363 9.65375 18.7345 11.5433 20.6242L19.4042 28.4587C21.2828 30.3373 24.2813 30.416 26.2528 28.6769L32.8599 35.284C28.8199 38.6473 22.7821 38.467 18.9513 34.6363ZM35.3777 32.8288L34.5489 33.6576L27.9184 27.0272L28.7472 26.1984C29.2053 25.7403 29.9466 25.7403 30.4048 26.1984L35.3777 31.1712C35.8347 31.6282 35.8347 32.3719 35.3777 32.8288Z" fill="#DBA674"/>
		<path d="M36.4835 0.000610352H22.4182C20.4793 0.000610352 18.9019 1.57803 18.9019 3.51693V12.8938C18.9019 14.8327 20.4793 16.4101 22.4182 16.4101H23.5903V19.9264C23.5903 20.9676 24.8554 21.491 25.5911 20.7553L29.9363 16.4101H36.4835C38.4224 16.4101 39.9998 14.8327 39.9998 12.8938V3.51701C39.9999 1.57811 38.4224 0.000610352 36.4835 0.000610352ZM37.6556 12.8939C37.6556 13.5402 37.1299 14.066 36.4835 14.066H29.4509C29.14 14.066 28.8419 14.1894 28.6222 14.4093L25.9346 17.0968V15.2381C25.9346 14.5907 25.4098 14.066 24.7625 14.066H22.4183C21.7719 14.066 21.2461 13.5402 21.2461 12.8939V3.51701C21.2461 2.87068 21.7719 2.3449 22.4183 2.3449H36.4836C37.1299 2.3449 37.6557 2.87068 37.6557 3.51701V12.8939H37.6556Z" fill="#DBA674"/>
		<path d="M34.1395 4.68909H24.7627C24.1153 4.68909 23.5906 5.21385 23.5906 5.86119C23.5906 6.50853 24.1153 7.0333 24.7627 7.0333H34.1395C34.7869 7.0333 35.3116 6.50853 35.3116 5.86119C35.3116 5.21385 34.7869 4.68909 34.1395 4.68909Z" fill="#DBA674"/>
		<path d="M29.4511 9.37744H24.7627C24.1153 9.37744 23.5906 9.90221 23.5906 10.5495C23.5906 11.1969 24.1153 11.7217 24.7627 11.7217H29.4511C30.0985 11.7217 30.6232 11.1969 30.6232 10.5495C30.6232 9.90221 30.0984 9.37744 29.4511 9.37744Z" fill="#DBA674"/>
	</symbol>
	<symbol xmlns="http://www.w3.org/2000/svg" id="tools" viewBox="0 0 40 40">
		<path d="M38.9269 8.51271C38.9269 8.00526 38.6204 7.54801 38.1511 7.35514L20.4755 0.0938574C20.1708 -0.0312858 19.8292 -0.0312858 19.5244 0.0938574L1.84889 7.35514C1.37952 7.54794 1.073 8.00526 1.073 8.51271V31.4873C1.073 31.9947 1.37944 32.452 1.84889 32.6449L19.5244 39.9061C19.8259 40.03 20.1647 40.0326 20.474 39.9061C20.489 39.9011 19.8198 40.1755 38.1511 32.6449C38.6205 32.4521 38.9269 31.9947 38.9269 31.4873V8.51271ZM20 14.5263L13.4872 11.8508L27.562 5.71091L34.5103 8.56535L20 14.5263ZM3.57586 10.485L9.19487 12.7933V19.3058C9.19487 19.9969 9.7552 20.5572 10.4463 20.5572C11.1374 20.5572 11.6977 19.9969 11.6977 19.3058V13.8215L18.7485 16.718V36.8815L3.57586 30.6484V10.485ZM20 2.60431L24.3382 4.3865L10.2634 10.5264L5.48961 8.56527L20 2.60431ZM21.2514 16.718L36.4241 10.485V30.6484L21.2514 36.8815V16.718Z" fill="#DBA674"/>
	</symbol>
	<symbol xmlns="http://www.w3.org/2000/svg" id="bisiness" viewBox="0 0 45 45">
		<path d="M9.22852 25.2246C9.95663 25.2246 10.5469 24.6344 10.5469 23.9062C10.5469 23.1781 9.95663 22.5879 9.22852 22.5879C8.50041 22.5879 7.91016 23.1781 7.91016 23.9062C7.91016 24.6344 8.50041 25.2246 9.22852 25.2246Z" fill="#DBA674"/>
		<path d="M23.9062 0C20.9985 0 18.6328 2.36566 18.6328 5.27344C18.6328 8.18121 20.9985 10.5469 23.9062 10.5469C26.814 10.5469 29.1797 8.18121 29.1797 5.27344C29.1797 2.36566 26.814 0 23.9062 0ZM23.9062 7.91016C22.4524 7.91016 21.2695 6.72732 21.2695 5.27344C21.2695 3.81955 22.4524 2.63672 23.9062 2.63672C25.3601 2.63672 26.543 3.81955 26.543 5.27344C26.543 6.72732 25.3601 7.91016 23.9062 7.91016Z" fill="#DBA674"/>
		<path d="M43.6816 18.6328C42.9536 18.6328 42.3633 19.2231 42.3633 19.9512V21.2695C42.3633 22.1506 41.9255 22.9701 41.1922 23.4619C40.8224 23.7099 40.1128 24.0445 39.1617 23.8496C37.4172 17.7983 31.8298 13.3594 25.2246 13.3594L16.416 13.3769C16.0494 13.3769 15.7045 13.2066 15.4697 12.9405C14.2262 11.5311 12.432 10.7227 10.5469 10.7227H6.5918C6.18741 10.7227 5.80535 10.9083 5.55539 11.2262C5.30543 11.5441 5.21525 11.9591 5.31062 12.3521L6.64567 17.8506C5.67009 18.8712 4.85692 20.0164 4.21778 21.2696H3.95508C1.77425 21.2696 0 23.0439 0 25.2247V29.1322C0 30.4152 0.625605 31.6229 1.67361 32.3629L3.99876 34.0049C4.81465 35.75 5.9545 37.294 7.39099 38.5987C7.58487 38.7749 7.91016 39.1447 7.91016 39.6431V42.7518C7.91016 43.9915 8.9187 45 10.1584 45H14.8904C16.1301 45 17.1387 43.9915 17.1387 42.7518V42.3633H25.2246V42.7518C25.2246 43.9915 26.2332 45 27.4729 45H32.2049C33.4445 45 34.4531 43.9915 34.4531 42.7518V40.7568C34.4531 39.7346 34.8666 38.7468 35.6176 37.9754C37.0788 36.4742 38.2167 34.6411 38.9083 32.6744C39.4513 31.1306 39.7266 29.5112 39.7266 27.8614C39.7266 27.4169 39.7054 26.9773 39.666 26.5429C39.6885 26.5431 39.7111 26.5446 39.7336 26.5446C40.7692 26.5446 41.7776 26.2441 42.6607 25.6519C44.1255 24.6696 45 23.0314 45 21.2695V19.9512C45 19.2231 44.4097 18.6328 43.6816 18.6328ZM36.421 31.7996C35.8554 33.4078 34.9243 34.9074 33.7281 36.1363C32.4954 37.4028 31.8164 39.0437 31.8164 40.7568V42.3633H27.8613C27.8613 40.9264 27.8613 39.8651 27.8613 38.4082C27.8613 37.6801 27.2711 37.0898 26.543 37.0898C25.8149 37.0898 25.2246 37.6801 25.2246 38.4082V39.7266H17.1387V38.4082C17.1387 37.6801 16.5484 37.0898 15.8203 37.0898C15.0922 37.0898 14.502 37.6801 14.502 38.4082C14.502 40.7387 14.502 40.8787 14.502 42.3633H10.5469V39.6431C10.5469 38.5211 10.0557 37.4571 9.16383 36.6471C7.92888 35.5253 6.92481 34.1283 6.26019 32.607C6.16386 32.3866 6.00908 32.1967 5.81256 32.0579L3.19456 30.2092C2.84528 29.9624 2.63672 29.5598 2.63672 29.1321V25.2246C2.63672 24.4977 3.22813 23.9062 3.95508 23.9062C5.01047 23.9062 5.3296 23.9422 5.63537 23.7702C5.82741 23.6934 6.11288 23.4506 6.25887 23.1186C6.25931 23.1176 6.25975 23.1167 6.2601 23.1158L6.2615 23.1125C6.90328 21.6447 7.82183 20.3403 8.99174 19.235L9.00598 19.2215C9.0189 19.2093 9.03164 19.1968 9.04412 19.1841C9.37512 18.8466 9.49298 18.3661 9.37714 17.9253L8.26857 13.3594H10.5469C11.6757 13.3594 12.7493 13.8425 13.4924 14.6849C14.2276 15.5181 15.2931 15.996 16.4159 15.996L25.2246 15.9785C31.7671 15.9785 37.0898 21.3188 37.0898 27.8613C37.0898 29.2125 36.8648 30.5375 36.421 31.7996Z" fill="#DBA674"/>
		<path d="M25.2247 18.6328H19.0532C18.3251 18.6328 17.7349 19.2231 17.7349 19.9512C17.7349 20.6793 18.3251 21.2695 19.0532 21.2695H25.2247C25.9528 21.2695 26.5431 20.6793 26.5431 19.9512C26.5431 19.2231 25.9528 18.6328 25.2247 18.6328Z" fill="#DBA674"/>
	</symbol>
	<symbol xmlns="http://www.w3.org/2000/svg" id="send" viewBox="0 0 22 22">
		<path fill-rule="evenodd" clip-rule="evenodd" d="M21.7071 0.292921C22.0976 0.683445 22.0976 1.31661 21.7071 1.70713L10.7071 12.7071C10.3166 13.0977 9.68342 13.0977 9.2929 12.7071C8.90237 12.3166 8.90237 11.6834 9.2929 11.2929L20.2929 0.292921C20.6834 -0.0976032 21.3166 -0.0976032 21.7071 0.292921Z" fill="white"/>
		<path fill-rule="evenodd" clip-rule="evenodd" d="M21.7071 0.292921C21.9787 0.564559 22.0708 0.967791 21.9439 1.33038L14.9439 21.3304C14.8084 21.7174 14.4504 21.9825 14.0408 21.9992C13.6311 22.0159 13.2527 21.7808 13.0862 21.4062L9.2424 12.7576L0.593867 8.91384C0.219186 8.74731 -0.0158775 8.36894 0.000836285 7.95926C0.0175501 7.54959 0.282654 7.19162 0.669655 7.05617L20.6697 0.0561695C21.0322 -0.0707359 21.4355 0.0212832 21.7071 0.292921ZM3.71108 8.11063L10.4061 11.0862C10.6324 11.1868 10.8133 11.3677 10.9138 11.5939L13.8894 18.289L19.37 2.63L3.71108 8.11063Z" fill="white"/>
	</symbol>
	<symbol xmlns="http://www.w3.org/2000/svg" id="arrow" viewBox="0 0 16 16">
		<path fill-rule="evenodd" clip-rule="evenodd" d="M1 8.99997H12.17L7.29 13.88C6.9 14.27 6.9 14.91 7.29 15.3C7.68 15.69 8.31 15.69 8.7 15.3L15.29 8.70997C15.68 8.31997 15.68 7.68997 15.29 7.29997L8.71 0.699971C8.32 0.309971 7.69 0.309971 7.3 0.699971C6.91 1.08997 6.91 1.71997 7.3 2.10997L12.17 6.99997H1C0.45 6.99997 0 7.44997 0 7.99997C0 8.54997 0.45 8.99997 1 8.99997Z"/>
	</symbol>
	<symbol xmlns="http://www.w3.org/2000/svg" id="arrow-prev" viewBox="0 0 16 16">
		<path fill-rule="evenodd" clip-rule="evenodd" d="M15 7.00003L3.83 7.00003L8.71 2.12003C9.1 1.73003 9.1 1.09003 8.71 0.700029C8.32 0.310028 7.69 0.310028 7.3 0.700029L0.710001 7.29003C0.32 7.68003 0.32 8.31003 0.710001 8.70003L7.29 15.3C7.68 15.69 8.31 15.69 8.7 15.3C9.09 14.91 9.09 14.28 8.7 13.89L3.83 9.00003L15 9.00003C15.55 9.00003 16 8.55003 16 8.00003C16 7.45003 15.55 7.00003 15 7.00003Z"/>
	</symbol>
	<symbol xmlns="http://www.w3.org/2000/svg" id="filter" viewBox="0 0 18 18">
		<path fill-rule="evenodd" clip-rule="evenodd" d="M0 15C0 15.55 0.45 16 1 16H6V14H1C0.45 14 0 14.45 0 15ZM0 3C0 3.55 0.45 4 1 4H10V2H1C0.45 2 0 2.45 0 3ZM10 17V16H17C17.55 16 18 15.55 18 15C18 14.45 17.55 14 17 14H10V13C10 12.45 9.55 12 9 12C8.45 12 8 12.45 8 13V17C8 17.55 8.45 18 9 18C9.55 18 10 17.55 10 17ZM4 7V8H1C0.45 8 0 8.45 0 9C0 9.55 0.45 10 1 10H4V11C4 11.55 4.45 12 5 12C5.55 12 6 11.55 6 11V7C6 6.45 5.55 6 5 6C4.45 6 4 6.45 4 7ZM18 9C18 8.45 17.55 8 17 8H8V10H17C17.55 10 18 9.55 18 9ZM13 6C13.55 6 14 5.55 14 5V4H17C17.55 4 18 3.55 18 3C18 2.45 17.55 2 17 2H14V1C14 0.45 13.55 0 13 0C12.45 0 12 0.45 12 1V5C12 5.55 12.45 6 13 6Z"/>
	</symbol>
	<symbol xmlns="http://www.w3.org/2000/svg" id="error" viewBox="0 0 374 444">
		<path d="M353.907 152.072L194.417 106.659V84.734C214.397 81.18 229.614 63.682 229.614 42.697C229.614 19.154 210.46 0 186.917 0C163.374 0 144.22 19.154 144.22 42.697C144.22 46.839 147.578 50.197 151.72 50.197C155.862 50.197 159.22 46.839 159.22 42.697C159.22 27.425 171.645 15 186.917 15C202.189 15 214.614 27.425 214.614 42.697C214.614 57.969 202.189 70.394 186.917 70.394C182.775 70.394 179.417 73.752 179.417 77.894V106.66L19.9282 152.072C6.67221 155.846 -1.25479 168.015 0.650205 181.666C2.55621 195.316 13.5122 204.85 27.2952 204.85H37.4172V215.834H17.9172C13.7752 215.834 10.4172 219.192 10.4172 223.334V436.334C10.4172 440.476 13.7752 443.834 17.9172 443.834H355.917C360.059 443.834 363.417 440.476 363.417 436.334V223.334C363.417 219.192 360.059 215.834 355.917 215.834H336.417V204.85H346.539C360.322 204.85 371.278 195.316 373.184 181.666C375.09 168.016 367.162 155.847 353.907 152.072ZM348.417 230.834V428.834H25.4172V230.834H37.4172V233.334C37.4172 237.476 40.7752 240.834 44.9172 240.834C49.0592 240.834 52.4172 237.476 52.4172 233.334V230.834H321.417V233.334C321.417 237.476 324.775 240.834 328.917 240.834C333.059 240.834 336.417 237.476 336.417 233.334V230.834H348.417ZM321.417 215.834H52.4172V204.85H321.417V215.834ZM358.328 179.592C357.667 184.324 354.183 189.85 346.539 189.85H336.417V183.334C336.417 179.192 333.059 175.834 328.917 175.834C324.775 175.834 321.417 179.192 321.417 183.334V189.85H52.4172V183.334C52.4172 179.192 49.0592 175.834 44.9172 175.834C40.7752 175.834 37.4172 179.192 37.4172 183.334V189.85H27.2952C19.6502 189.85 16.1672 184.324 15.5062 179.592C14.8462 174.861 16.6832 168.592 24.0352 166.499L186.917 120.12L349.8 166.499C357.152 168.592 358.989 174.86 358.328 179.592Z" fill="black"/>
	</symbol>
</svg>
